<mxfile host="Electron" agent="Mozilla/5.0 (Windows NT 10.0; Win64; x64) AppleWebKit/537.36 (KHTML, like Gecko) draw.io/27.0.9 Chrome/134.0.6998.205 Electron/35.4.0 Safari/537.36" version="27.0.9">
  <diagram name="Page-1" id="aHwYECoRN9ZZLvPwpCF0">
    <mxGraphModel dx="1125" dy="780" grid="1" gridSize="10" guides="1" tooltips="1" connect="1" arrows="1" fold="1" page="1" pageScale="1" pageWidth="850" pageHeight="1100" math="0" shadow="0">
      <root>
        <mxCell id="0" />
        <mxCell id="1" parent="0" />
        <mxCell id="CzPULuTj7yl63Obo9YXj-3" value="" style="edgeStyle=orthogonalEdgeStyle;rounded=0;orthogonalLoop=1;jettySize=auto;html=1;" edge="1" parent="1" source="CzPULuTj7yl63Obo9YXj-1" target="CzPULuTj7yl63Obo9YXj-2">
          <mxGeometry relative="1" as="geometry" />
        </mxCell>
        <mxCell id="CzPULuTj7yl63Obo9YXj-1" value="displayEngineCapacities(int age, char license)" style="strokeWidth=2;html=1;shape=mxgraph.flowchart.terminator;whiteSpace=wrap;fillColor=#d80073;fontColor=#ffffff;strokeColor=#A50040;shadow=1;" vertex="1" parent="1">
          <mxGeometry x="350" y="40" width="150" height="70" as="geometry" />
        </mxCell>
        <mxCell id="CzPULuTj7yl63Obo9YXj-5" value="" style="edgeStyle=orthogonalEdgeStyle;rounded=0;orthogonalLoop=1;jettySize=auto;html=1;" edge="1" parent="1" source="CzPULuTj7yl63Obo9YXj-2" target="CzPULuTj7yl63Obo9YXj-4">
          <mxGeometry relative="1" as="geometry" />
        </mxCell>
        <mxCell id="CzPULuTj7yl63Obo9YXj-2" value="Display:&lt;div&gt;&quot;Available Engine Capacities:&quot;&lt;/div&gt;" style="shape=parallelogram;perimeter=parallelogramPerimeter;whiteSpace=wrap;html=1;fixedSize=1;fillColor=#008a00;strokeColor=#005700;fontColor=#ffffff;strokeWidth=2;shadow=1;" vertex="1" parent="1">
          <mxGeometry x="300" y="150" width="250" height="60" as="geometry" />
        </mxCell>
        <mxCell id="CzPULuTj7yl63Obo9YXj-8" value="" style="edgeStyle=orthogonalEdgeStyle;rounded=0;orthogonalLoop=1;jettySize=auto;html=1;" edge="1" parent="1" source="CzPULuTj7yl63Obo9YXj-4" target="CzPULuTj7yl63Obo9YXj-7">
          <mxGeometry relative="1" as="geometry" />
        </mxCell>
        <mxCell id="CzPULuTj7yl63Obo9YXj-4" value="Display:&lt;div&gt;&quot;1 - 100cc (Under 13)&quot;&lt;/div&gt;" style="shape=parallelogram;perimeter=parallelogramPerimeter;whiteSpace=wrap;html=1;fixedSize=1;fillColor=#008a00;strokeColor=#005700;fontColor=#ffffff;strokeWidth=2;shadow=1;" vertex="1" parent="1">
          <mxGeometry x="300" y="250" width="250" height="60" as="geometry" />
        </mxCell>
        <mxCell id="CzPULuTj7yl63Obo9YXj-12" value="" style="edgeStyle=orthogonalEdgeStyle;rounded=0;orthogonalLoop=1;jettySize=auto;html=1;" edge="1" parent="1" source="CzPULuTj7yl63Obo9YXj-7" target="CzPULuTj7yl63Obo9YXj-11">
          <mxGeometry relative="1" as="geometry" />
        </mxCell>
        <mxCell id="CzPULuTj7yl63Obo9YXj-13" value="True" style="edgeLabel;html=1;align=center;verticalAlign=middle;resizable=0;points=[];" vertex="1" connectable="0" parent="CzPULuTj7yl63Obo9YXj-12">
          <mxGeometry x="-0.3809" y="-1" relative="1" as="geometry">
            <mxPoint x="7" as="offset" />
          </mxGeometry>
        </mxCell>
        <mxCell id="CzPULuTj7yl63Obo9YXj-15" value="" style="edgeStyle=orthogonalEdgeStyle;rounded=0;orthogonalLoop=1;jettySize=auto;html=1;" edge="1" parent="1" source="CzPULuTj7yl63Obo9YXj-7" target="CzPULuTj7yl63Obo9YXj-14">
          <mxGeometry relative="1" as="geometry" />
        </mxCell>
        <mxCell id="CzPULuTj7yl63Obo9YXj-16" value="False" style="edgeLabel;html=1;align=center;verticalAlign=middle;resizable=0;points=[];" vertex="1" connectable="0" parent="CzPULuTj7yl63Obo9YXj-15">
          <mxGeometry x="-0.2239" y="4" relative="1" as="geometry">
            <mxPoint x="4" y="-4" as="offset" />
          </mxGeometry>
        </mxCell>
        <mxCell id="CzPULuTj7yl63Obo9YXj-7" value="age &amp;gt;= 18" style="rhombus;whiteSpace=wrap;html=1;fillColor=#0050ef;strokeColor=#001DBC;fontColor=#ffffff;strokeWidth=2;shadow=1;" vertex="1" parent="1">
          <mxGeometry x="385" y="350" width="80" height="80" as="geometry" />
        </mxCell>
        <mxCell id="CzPULuTj7yl63Obo9YXj-11" value="Display:&lt;div&gt;&quot;2 - 200cc&quot;&lt;/div&gt;" style="shape=parallelogram;perimeter=parallelogramPerimeter;whiteSpace=wrap;html=1;fixedSize=1;fillColor=#008a00;strokeColor=#005700;fontColor=#ffffff;strokeWidth=2;shadow=1;" vertex="1" parent="1">
          <mxGeometry x="500" y="450" width="250" height="60" as="geometry" />
        </mxCell>
        <mxCell id="CzPULuTj7yl63Obo9YXj-18" value="" style="edgeStyle=orthogonalEdgeStyle;rounded=0;orthogonalLoop=1;jettySize=auto;html=1;exitX=1;exitY=0.5;exitDx=0;exitDy=0;" edge="1" parent="1" source="CzPULuTj7yl63Obo9YXj-14" target="CzPULuTj7yl63Obo9YXj-17">
          <mxGeometry relative="1" as="geometry" />
        </mxCell>
        <mxCell id="CzPULuTj7yl63Obo9YXj-19" value="True" style="edgeLabel;html=1;align=center;verticalAlign=middle;resizable=0;points=[];" vertex="1" connectable="0" parent="CzPULuTj7yl63Obo9YXj-18">
          <mxGeometry x="-0.5184" relative="1" as="geometry">
            <mxPoint as="offset" />
          </mxGeometry>
        </mxCell>
        <mxCell id="CzPULuTj7yl63Obo9YXj-14" value="license == &#39;Y&#39;" style="rhombus;whiteSpace=wrap;html=1;fillColor=#0050ef;strokeColor=#001DBC;fontColor=#ffffff;strokeWidth=2;shadow=1;" vertex="1" parent="1">
          <mxGeometry x="205" y="440" width="95" height="90" as="geometry" />
        </mxCell>
        <mxCell id="CzPULuTj7yl63Obo9YXj-17" value="Display:&lt;div&gt;&quot;3 - 270cc (Requires License)&quot;&lt;/div&gt;" style="shape=parallelogram;perimeter=parallelogramPerimeter;whiteSpace=wrap;html=1;fixedSize=1;fillColor=#008a00;strokeColor=#005700;fontColor=#ffffff;strokeWidth=2;shadow=1;" vertex="1" parent="1">
          <mxGeometry x="300" y="570" width="250" height="60" as="geometry" />
        </mxCell>
        <mxCell id="CzPULuTj7yl63Obo9YXj-20" value="End" style="strokeWidth=2;html=1;shape=mxgraph.flowchart.terminator;whiteSpace=wrap;fillColor=#d80073;fontColor=#ffffff;strokeColor=#A50040;shadow=1;" vertex="1" parent="1">
          <mxGeometry x="395" y="700" width="60" height="40" as="geometry" />
        </mxCell>
        <mxCell id="CzPULuTj7yl63Obo9YXj-21" style="edgeStyle=orthogonalEdgeStyle;rounded=0;orthogonalLoop=1;jettySize=auto;html=1;exitX=0.5;exitY=1;exitDx=0;exitDy=0;entryX=0;entryY=0.5;entryDx=0;entryDy=0;entryPerimeter=0;" edge="1" parent="1" source="CzPULuTj7yl63Obo9YXj-14" target="CzPULuTj7yl63Obo9YXj-20">
          <mxGeometry relative="1" as="geometry" />
        </mxCell>
        <mxCell id="CzPULuTj7yl63Obo9YXj-24" value="False" style="edgeLabel;html=1;align=center;verticalAlign=middle;resizable=0;points=[];" vertex="1" connectable="0" parent="CzPULuTj7yl63Obo9YXj-21">
          <mxGeometry x="-0.8164" y="-1" relative="1" as="geometry">
            <mxPoint as="offset" />
          </mxGeometry>
        </mxCell>
        <mxCell id="CzPULuTj7yl63Obo9YXj-22" style="edgeStyle=orthogonalEdgeStyle;rounded=0;orthogonalLoop=1;jettySize=auto;html=1;exitX=0.5;exitY=1;exitDx=0;exitDy=0;entryX=0.5;entryY=0;entryDx=0;entryDy=0;entryPerimeter=0;" edge="1" parent="1" source="CzPULuTj7yl63Obo9YXj-17" target="CzPULuTj7yl63Obo9YXj-20">
          <mxGeometry relative="1" as="geometry" />
        </mxCell>
        <mxCell id="CzPULuTj7yl63Obo9YXj-23" style="edgeStyle=orthogonalEdgeStyle;rounded=0;orthogonalLoop=1;jettySize=auto;html=1;exitX=0.5;exitY=1;exitDx=0;exitDy=0;entryX=1;entryY=0.5;entryDx=0;entryDy=0;entryPerimeter=0;" edge="1" parent="1" source="CzPULuTj7yl63Obo9YXj-11" target="CzPULuTj7yl63Obo9YXj-20">
          <mxGeometry relative="1" as="geometry" />
        </mxCell>
      </root>
    </mxGraphModel>
  </diagram>
</mxfile>
